# xmcd CD database file
#
# Track frame offsets:
#	150
#	23514
#	52683
#	101871
#	113198
#	136119
#	177767
#	183306
#	196772
#
# Disc length: 3048 seconds
#
# Revision: 0
# Processed by: cddbd v1.5.2PL0 Copyright (c) Steve Scherf et al.
# Submitted via: CDex 1.51
#
DISCID=670be609
DTITLE=Andouma Trio - Fantasia
DYEAR=1900
DGENRE=Jazz
TTITLE0=Kouroudja
TTITLE1=Akoukoulé
TTITLE2=Manège Infernal
TTITLE3=Fantasia 1
TTITLE4=Fantasia 2
TTITLE5=Power Block
TTITLE6=Mouroundou Intro
TTITLE7=Mouroundou
TTITLE8=Sanaï
EXTD=
EXTT0=
EXTT1=
EXTT2=
EXTT3=
EXTT4=
EXTT5=
EXTT6=
EXTT7=
EXTT8=
PLAYORDER=
